<svg width="800" height="200" viewBox="0 0 800 200" xmlns="http://www.w3.org/2000/svg">
    <!-- Define gradients -->
    <defs>
        <!-- Modern background gradient -->
        <linearGradient id="bgGradient" x1="0%" y1="0%" x2="100%" y2="100%">
            <stop offset="0%" style="stop-color:#0F172A;stop-opacity:1" />
            <stop offset="50%" style="stop-color:#1E293B;stop-opacity:1" />
            <stop offset="100%" style="stop-color:#334155;stop-opacity:1" />
        </linearGradient>
        <!-- Accent gradient for decorative elements -->
        <linearGradient id="accentGradient" x1="0%" y1="0%" x2="100%" y2="0%">
            <stop offset="0%" style="stop-color:#3B82F6;stop-opacity:0.8" />
            <stop offset="30%" style="stop-color:#8B5CF6;stop-opacity:0.6" />
            <stop offset="70%" style="stop-color:#F59E0B;stop-opacity:0.4" />
            <stop offset="100%" style="stop-color:#EF4444;stop-opacity:0.2" />
        </linearGradient>
        <!-- Cloud icon gradient -->
        <linearGradient id="cloudGradient" x1="0%" y1="0%" x2="100%" y2="100%">
            <stop offset="0%" style="stop-color:#60A5FA;stop-opacity:1" />
            <stop offset="100%" style="stop-color:#3B82F6;stop-opacity:1" />
        </linearGradient>
        <!-- Glow effect -->
        <filter id="glow">
            <feGaussianBlur stdDeviation="2" result="coloredBlur"/>
            <feMerge>
                <feMergeNode in="coloredBlur"/>
                <feMergeNode in="SourceGraphic"/>
            </feMerge>
        </filter>
    </defs>
    
    <!-- Background -->
    <rect width="800" height="200" fill="url(#bgGradient)" />
    
    <!-- Static background patterns -->
    <g opacity="0.15">
        <circle cx="100" cy="50" r="22" fill="#3B82F6"/>
        <circle cx="700" cy="150" r="17" fill="#8B5CF6"/>
        <circle cx="600" cy="40" r="15" fill="#F59E0B"/>
        <circle cx="150" cy="160" r="12" fill="#EF4444"/>
    </g>
    
    <!-- Decorative flowing lines -->
    <g opacity="0.4">
        <path d="M0,60 Q200,40 400,60 Q600,80 800,60" stroke="url(#accentGradient)" stroke-width="2" fill="none"/>
        <path d="M0,140 Q300,110 600,140 Q700,150 800,140" stroke="url(#accentGradient)" stroke-width="1.5" fill="none" opacity="0.6"/>
        <path d="M0,100 Q400,70 800,100" stroke="url(#accentGradient)" stroke-width="1" fill="none" opacity="0.3"/>
    </g>
    
    <!-- Grid pattern -->
    <g opacity="0.05" stroke="#64748B" stroke-width="0.5">
        <defs>
            <pattern id="grid" width="40" height="40" patternUnits="userSpaceOnUse">
                <path d="M 40 0 L 0 0 0 40" fill="none"/>
            </pattern>
        </defs>
        <rect width="800" height="200" fill="url(#grid)"/>
    </g>
    
    <!-- Main content container -->
    <g transform="translate(60,75)">
        <!-- Name with enhanced styling -->
        <text font-family="'SF Pro Display', 'Segoe UI', -apple-system, BlinkMacSystemFont, sans-serif" 
              font-size="38" fill="#ffffff" font-weight="700" letter-spacing="-0.02em">
            Mahesh Sangawar
        </text>
        <!-- Subtitle with modern styling -->
        <text x="0" y="35" font-family="'SF Pro Display', 'Segoe UI', -apple-system, BlinkMacSystemFont, sans-serif" 
              font-size="17" fill="#94A3B8" font-weight="500" letter-spacing="0.03em">
            Cloud Architect • Platform Engineer • Full Stack Developer
        </text>
    </g>
    
    <!-- Tech visualization on the right -->
    <g transform="translate(580,50)">
        <!-- Background circle with subtle border -->
        <circle cx="60" cy="50" r="40" fill="#1E293B" opacity="0.9" stroke="#475569" stroke-width="1"/>
        
        <!-- Cloud icon -->
        <g transform="translate(37,32)">
            <!-- Main cloud shape -->
            <path d="M8,30 C4,30 4,22 8,22 C8,18 12,14 22,14 C26,10 36,10 40,14 C44,14 44,18 44,22 C47,22 47,30 44,30 Z" 
                  fill="url(#cloudGradient)"/>
        </g>
        
        <!-- Static tech icons positioned around cloud -->
        <g>
            <!-- Kubernetes icon -->
            <g transform="translate(25,45)">
                <polygon points="5,0 10,3 10,9 5,12 0,9 0,3" fill="#326CE5"/>
                <circle cx="5" cy="6" r="2" fill="#ffffff"/>
            </g>
            
            <!-- AWS icon -->
            <g transform="translate(85,42)">
                <path d="M0,8 Q4,0 8,8 Q4,16 0,8" fill="#FF9900"/>
                <rect x="2" y="6" width="4" height="4" fill="#232F3E"/>
            </g>
            
            <!-- React icon -->
            <g transform="translate(55,20)">
                <circle cx="5" cy="5" r="2" fill="#61DAFB"/>
                <ellipse cx="5" cy="5" rx="8" ry="3" fill="none" stroke="#61DAFB" stroke-width="1"/>
                <ellipse cx="5" cy="5" rx="8" ry="3" fill="none" stroke="#61DAFB" stroke-width="1" transform="rotate(60 5 5)"/>
                <ellipse cx="5" cy="5" rx="8" ry="3" fill="none" stroke="#61DAFB" stroke-width="1" transform="rotate(120 5 5)"/>
            </g>
            
            <!-- TypeScript icon -->
            <g transform="translate(35,72)">
                <rect x="0" y="0" width="8" height="8" rx="1" fill="#3178C6"/>
                <text x="4" y="6" font-family="monospace" font-size="5" text-anchor="middle" fill="white" font-weight="bold">TS</text>
            </g>
            
            <!-- Docker icon -->
            <g transform="translate(75,70)">
                <rect x="0" y="2" width="2" height="4" fill="#2496ED"/>
                <rect x="3" y="2" width="2" height="4" fill="#2496ED"/>
                <rect x="6" y="2" width="2" height="4" fill="#2496ED"/>
                <rect x="3" y="0" width="2" height="2" fill="#2496ED"/>
                <path d="M0,6 Q4,8 8,6" stroke="#2496ED" stroke-width="1" fill="none"/>
            </g>
        </g>
    </g>
    
    <!-- Tech stack footer -->
    <g transform="translate(60,180)">
        <text font-family="'SF Mono', 'Monaco', 'Consolas', monospace" 
              font-size="11" fill="#64748B" font-weight="500" letter-spacing="0.08em">
            AWS • Azure • Kubernetes • ArgoCD • Go • TypeScript • React • Node.js • Docker
        </text>
    </g>
    
    <!-- Corner accents -->
    <g opacity="0.3">
        <path d="M0,0 L25,0 L0,25 Z" fill="url(#accentGradient)"/>
        <path d="M800,0 L775,0 L800,25 Z" fill="url(#accentGradient)"/>
        <path d="M0,200 L25,200 L0,175 Z" fill="url(#accentGradient)"/>
        <path d="M800,200 L775,200 L800,175 Z" fill="url(#accentGradient)"/>
    </g>
    
    <!-- Subtle tech pattern overlay -->
    <g opacity="0.05">
        <text x="50" y="30" font-family="monospace" font-size="8" fill="#3B82F6">010101</text>
        <text x="650" y="190" font-family="monospace" font-size="8" fill="#8B5CF6">110010</text>
        <text x="200" y="190" font-family="monospace" font-size="8" fill="#F59E0B">101110</text>
    </g>
</svg>
